<?xml version="1.0" encoding="UTF-8"?>
<svg id="Layer_1" data-name="Layer 1" xmlns="http://www.w3.org/2000/svg" viewBox="0 0 600 600">
  <defs>
    <style>
      .cls-1 {
        fill: #fff;
      }
    </style>
  </defs>
  <g>
    <path class="cls-1" d="M66.39,330.44c-.91-8.47-1.39-17.03-1.39-25.67,0-62.77,24.44-121.78,68.83-166.17,40.83-40.83,94.04-64.77,151.16-68.34.73-1.94,1.51-3.9,2.35-5.89,5.58-13.06,13.03-24.61,21.97-34.43-3.09-.1-6.2-.17-9.32-.17C148.12,29.77,25,152.89,25,304.77c0,55.35,16.37,106.88,44.51,150.02-12.37-40.66-13.45-82.62-3.11-124.35Z"/>
    <path class="cls-1" d="M512.63,130.37c-1.49,9.46-4.02,18.46-7.48,26.6-2.64,6.2-5.77,12.1-9.36,17.69,25.51,38.22,39.22,83.11,39.22,130.1,0,62.71-24.4,121.67-68.71,166.04-11.04,23.53-25.2,44.58-42.17,62.49-12.53,13.22-26.04,24.21-40.02,33.35,110.74-35.54,190.89-139.34,190.89-261.88,0-66.2-23.4-126.94-62.37-174.4Z"/>
  </g>
  <path class="cls-1" d="M198.19,182.04l27.44,204.08-74.03-58.84c-21.46,96.5,78.63,164.15,78.63,164.15,0,0,156.08-4.78,150.51-187.4-2.26-73.96-26.5-120.79-43.56-144.12-12.7-17.36-29.03-42.44-13.05-79.82,24.03-56.24,90.35-58.61,125.46-27.41,29.86,26.53,27.5,68.08,18.75,88.62-4.27,10.03-10.6,19.1-18.57,26.57-15.28,14.33-20.6,36.4-14.19,56.34,36.72,114.21,16.82,221.11-40.5,281.57-73.9,77.96-193.51,63.37-193.51,63.37-16.26-6.9-143.58-109.5-88.45-254.37,32.4-85.12,85.06-132.74,85.06-132.74ZM439.56,101.45c-3.01-14.14-12.77-25.96-26.11-31.63-8.37-3.55-17.53-4.43-26.48-2.52-23.91,5.08-39.23,28.67-34.15,52.59,3.01,14.14,12.77,25.96,26.1,31.63,8.37,3.55,17.53,4.43,26.48,2.52,23.91-5.08,39.23-28.67,34.15-52.59Z"/>
</svg>